<svg xmlns="http://www.w3.org/2000/svg" xmlns:xlink="http://www.w3.org/1999/xlink" fill="none" version="1.1" width="41" height="46.88888931274414" viewBox="0 0 41 46.88888931274414"><defs><clipPath id="master_svg0_42_806"><rect x="0" y="0" width="41" height="46.88888931274414" rx="0"/></clipPath><filter id="master_svg1_42_813" filterUnits="objectBoundingBox" color-interpolation-filters="sRGB" x="-0.957850244734238" y="-1.6382698343420683" width="2.915700489468476" height="4.276539668684136"><feFlood flood-opacity="0" result="BackgroundImageFix"/><feColorMatrix in="SourceAlpha" type="matrix" values="0 0 0 0 0 0 0 0 0 0 0 0 0 0 0 0 0 0 127 0"/><feOffset dy="0" dx="0"/><feGaussianBlur stdDeviation="5"/><feColorMatrix type="matrix" values="0 0 0 0 1 0 0 0 0 0.8156862854957581 0 0 0 0 0.6352941393852234 0 0 0 0.30000001192092896 0"/><feBlend mode="normal" in2="BackgroundImageFix" result="effect1_dropShadow"/><feBlend mode="normal" in="SourceGraphic" in2="effect1_dropShadow" result="shape"/></filter></defs><g clip-path="url(#master_svg0_42_806)"><g><g><rect x="0" y="0" width="41" height="46.88888931274414" rx="0" fill="#FFFFFF" fill-opacity="0" style="mix-blend-mode:passthrough"/></g><g><g><rect x="3.888671875" y="6.77783203125" width="33.33333206176758" height="33.33333206176758" rx="16.66666603088379" fill="#FFDF3E" fill-opacity="1" style="mix-blend-mode:passthrough"/><rect x="3.888671875" y="6.77783203125" width="33.33333206176758" height="33.33333206176758" rx="16.66666603088379" fill="#2A2A2A" fill-opacity="1"/></g></g><g filter="url(#master_svg1_42_813)"><g><path d="M15.011314819335936,29.399864013671873C17.987314819335936,29.399864013671873,20.051314819335936,27.767864013671876,20.035314819335937,25.415864013671875C20.035314819335937,20.647864013671875,12.787314819335938,23.111864013671877,12.787314819335938,20.711864013671875C12.787314819335938,19.895864013671876,13.683314819335937,19.319864013671875,14.947314819335936,19.319864013671875C16.21131481933594,19.319864013671875,17.171314819335937,19.895864013671876,17.267314819335937,20.727864013671876L19.555314819335937,20.727864013671876L19.555314819335937,19.479864013671875C19.09131481933594,18.135864013671874,17.171314819335937,17.191864013671875,14.867314819335938,17.191864013671875C12.083314819335937,17.191864013671875,10.163314819335938,18.743864013671875,10.163314819335938,20.983864013671877C10.163314819335938,25.799864013671876,17.427314819335937,23.319864013671875,17.427314819335937,25.767864013671876C17.427314819335937,26.647864013671875,16.451314819335938,27.287864013671875,15.107314819335937,27.271864013671873C13.795314819335937,27.271864013671873,12.787314819335938,26.599864013671876,12.675314819335938,25.655864013671874L10.371313819335937,25.655864013671874L10.371313819335937,26.903864013671875C10.899314819335938,28.375864013671872,12.803314819335938,29.399864013671873,15.011314819335936,29.399864013671873ZM26.01931481933594,29.399864013671873C28.99531481933594,29.399864013671873,31.05931481933594,27.767864013671876,31.043314819335937,25.415864013671875C31.043314819335937,20.647864013671875,23.795314819335935,23.111864013671877,23.795314819335935,20.711864013671875C23.795314819335935,19.895864013671876,24.691314819335936,19.319864013671875,25.95531481933594,19.319864013671875C27.21931481933594,19.319864013671875,28.179314819335936,19.895864013671876,28.275314819335936,20.727864013671876L30.563314819335936,20.727864013671876L30.563314819335936,19.479864013671875C30.099314819335937,18.135864013671874,28.179314819335936,17.191864013671875,25.875314819335937,17.191864013671875C23.09131481933594,17.191864013671875,21.171314819335937,18.743864013671875,21.171314819335937,20.983864013671877C21.171314819335937,25.799864013671876,28.435314819335936,23.319864013671875,28.435314819335936,25.767864013671876C28.435314819335936,26.647864013671875,27.459314819335937,27.287864013671875,26.115314819335936,27.271864013671873C24.803314819335938,27.271864013671873,23.795314819335935,26.599864013671876,23.683314819335937,25.655864013671874L21.37931481933594,25.655864013671874L21.37931481933594,26.903864013671875C21.907314819335937,28.375864013671872,23.811314819335937,29.399864013671873,26.01931481933594,29.399864013671873Z" fill="#FFD0A2" fill-opacity="1" style="mix-blend-mode:passthrough"/></g></g></g></g></svg>