<svg xmlns="http://www.w3.org/2000/svg" xmlns:xlink="http://www.w3.org/1999/xlink" fill="none" version="1.1" width="41" height="46.88888931274414" viewBox="0 0 41 46.88888931274414"><defs><clipPath id="master_svg0_59_768"><rect x="0" y="0" width="41" height="46.88888931274414" rx="0"/></clipPath><filter id="master_svg1_59_776" filterUnits="objectBoundingBox" color-interpolation-filters="sRGB" x="-1.7217629180329483" y="-1.6382698343420683" width="4.443525836065897" height="4.276539668684136"><feFlood flood-opacity="0" result="BackgroundImageFix"/><feColorMatrix in="SourceAlpha" type="matrix" values="0 0 0 0 0 0 0 0 0 0 0 0 0 0 0 0 0 0 127 0"/><feOffset dy="0" dx="0"/><feGaussianBlur stdDeviation="5"/><feColorMatrix type="matrix" values="0 0 0 0 1 0 0 0 0 0.7372549176216125 0 0 0 0 0.8823529481887817 0 0 0 0.30000001192092896 0"/><feBlend mode="normal" in2="BackgroundImageFix" result="effect1_dropShadow"/><feBlend mode="normal" in="SourceGraphic" in2="effect1_dropShadow" result="shape"/></filter></defs><g clip-path="url(#master_svg0_59_768)"><g><g><rect x="0" y="0" width="41" height="46.88888931274414" rx="0" fill="#FFFFFF" fill-opacity="0" style="mix-blend-mode:passthrough"/></g><g><g><rect x="3.888916015625" y="6.77783203125" width="33.33333206176758" height="33.33333206176758" rx="16.66666603088379" fill="#2A2A2A" fill-opacity="0"/></g></g><g filter="url(#master_svg1_59_776)"><g><path d="M24.059259887695312,24.919864013671877C23.787259887695313,26.119864013671876,22.555259887695314,26.951864013671873,21.067259887695315,26.951864013671873C19.051259887695313,26.951864013671873,17.627259887695313,25.447864013671875,17.627259887695313,23.303864013671877C17.627259887695313,21.127864013671875,19.03525988769531,19.623864013671874,21.083259887695313,19.639864013671875C22.555259887695314,19.655864013671874,23.787259887695313,20.471864013671876,24.059259887695312,21.735864013671875L26.379259887695312,21.735864013671875L26.379259887695312,20.231864013671874C25.499259887695313,18.471864013671876,23.243259887695313,17.191864013671875,20.987259887695313,17.191864013671875C17.38725988769531,17.191864013671875,14.763259887695312,19.767864013671876,14.763259887695312,23.303864013671877C14.763259887695312,26.839864013671875,17.38725988769531,29.399864013671873,20.987259887695313,29.399864013671873C23.243259887695313,29.399864013671873,25.499259887695313,28.151864013671876,26.379259887695312,26.439864013671873L26.379259887695312,24.919864013671877L24.059259887695312,24.919864013671877Z" fill="#FFBCE1" fill-opacity="1" style="mix-blend-mode:passthrough"/></g></g></g></g></svg>