<svg xmlns="http://www.w3.org/2000/svg" xmlns:xlink="http://www.w3.org/1999/xlink" fill="none" version="1.1" width="41" height="46.88888931274414" viewBox="0 0 41 46.88888931274414"><defs><clipPath id="master_svg0_59_748"><rect x="0" y="0" width="41" height="46.88888931274414" rx="0"/></clipPath><filter id="master_svg1_59_755" filterUnits="objectBoundingBox" color-interpolation-filters="sRGB" x="-1.8274853393491033" y="-1.753155681396872" width="4.654970678698207" height="4.506311362793744"><feFlood flood-opacity="0" result="BackgroundImageFix"/><feColorMatrix in="SourceAlpha" type="matrix" values="0 0 0 0 0 0 0 0 0 0 0 0 0 0 0 0 0 0 127 0"/><feOffset dy="0" dx="0"/><feGaussianBlur stdDeviation="5"/><feColorMatrix type="matrix" values="0 0 0 0 1 0 0 0 0 0.729411780834198 0 0 0 0 0.729411780834198 0 0 0 0.30000001192092896 0"/><feBlend mode="normal" in2="BackgroundImageFix" result="effect1_dropShadow"/><feBlend mode="normal" in="SourceGraphic" in2="effect1_dropShadow" result="shape"/></filter></defs><g clip-path="url(#master_svg0_59_748)"><g><g><rect x="0" y="0" width="41" height="46.88888931274414" rx="0" fill="#FFFFFF" fill-opacity="0" style="mix-blend-mode:passthrough"/></g><g><g><rect x="3.888916015625" y="6.77783203125" width="33.33333206176758" height="33.33333206176758" rx="16.66666603088379" fill="#2A2A2A" fill-opacity="0"/></g></g><g filter="url(#master_svg1_59_755)"><g><path d="M26.338866943359378,23.3039189453125C26.338866943359378,19.8799189453125,23.714866943359375,17.5919189453125,19.778866943359375,17.5919189453125L15.394866943359375,17.5919189453125L15.394866943359375,28.9999189453125L19.778866943359375,28.9999189453125C23.714866943359375,28.9999189453125,26.338866943359378,26.7279189453125,26.338866943359378,23.3039189453125ZM19.778866943359375,19.7999189453125C22.002866943359376,19.7999189453125,23.490866943359375,21.1599189453125,23.490866943359375,23.3039189453125C23.490866943359375,25.4319189453125,22.002866943359376,26.7919189453125,19.778866943359375,26.7919189453125L18.178866943359374,26.7919189453125L18.178866943359374,19.7999189453125L19.778866943359375,19.7999189453125Z" fill="#FFBABA" fill-opacity="1" style="mix-blend-mode:passthrough"/></g></g></g></g></svg>