<svg xmlns="http://www.w3.org/2000/svg" xmlns:xlink="http://www.w3.org/1999/xlink" fill="none" version="1.1" width="41" height="46.88888931274414" viewBox="0 0 41 46.88888931274414"><defs><clipPath id="master_svg0_42_727"><rect x="0" y="0" width="41" height="46.88888931274414" rx="0"/></clipPath><filter id="master_svg1_42_731" filterUnits="objectBoundingBox" color-interpolation-filters="sRGB" x="-1.9171778846659284" y="-1.753155681396872" width="4.834355769331856" height="4.506311362793744"><feFlood flood-opacity="0" result="BackgroundImageFix"/><feColorMatrix in="SourceAlpha" type="matrix" values="0 0 0 0 0 0 0 0 0 0 0 0 0 0 0 0 0 0 127 0"/><feOffset dy="0" dx="0"/><feGaussianBlur stdDeviation="5"/><feColorMatrix type="matrix" values="0 0 0 0 0.8627451062202454 0 0 0 0 0.7529411911964417 0 0 0 0 1 0 0 0 0.30000001192092896 0"/><feBlend mode="normal" in2="BackgroundImageFix" result="effect1_dropShadow"/><feBlend mode="normal" in="SourceGraphic" in2="effect1_dropShadow" result="shape"/></filter></defs><g clip-path="url(#master_svg0_42_727)"><g><g><rect x="0" y="0" width="41" height="46.88888931274414" rx="0" fill="#FFFFFF" fill-opacity="0" style="mix-blend-mode:passthrough"/></g><g><g><rect x="3.888916015625" y="6.77783203125" width="33.33333206176758" height="33.33333206176758" rx="16.66666603088379" fill="#FFD400" fill-opacity="1" style="mix-blend-mode:passthrough"/><rect x="3.888916015625" y="6.77783203125" width="33.33333206176758" height="33.33333206176758" rx="16.66666603088379" fill="#2A2A2A" fill-opacity="1"/></g></g><g filter="url(#master_svg1_42_731)"><g><path d="M15.691192626953125,17.5919189453125L15.691192626953125,28.9999189453125L21.931192626953127,28.9999189453125C24.411192626953124,28.9999189453125,26.123192626953127,27.7519189453125,26.123192626953127,25.8479189453125C26.123192626953127,24.4719189453125,25.339192626953125,23.3679189453125,24.155192626953124,23.095918945312498C25.131192626953123,22.8079189453125,25.803192626953127,21.8799189453125,25.803192626953127,20.6959189453125C25.803192626953127,18.9199189453125,24.123192626953127,17.5919189453125,21.707192626953123,17.5919189453125L15.691192626953125,17.5919189453125ZM21.339192626953125,24.0399189453125C22.427192626953126,24.0399189453125,23.195192626953123,24.6319189453125,23.195192626953123,25.4959189453125C23.195192626953123,26.2959189453125,22.427192626953126,26.8719189453125,21.339192626953125,26.8719189453125L18.555192626953126,26.8719189453125L18.555192626953126,24.0399189453125L21.339192626953125,24.0399189453125ZM18.555192626953126,19.7199189453125L21.195192626953123,19.7199189453125C22.187192626953127,19.7199189453125,22.875192626953126,20.2159189453125,22.875192626953126,20.9359189453125C22.875192626953126,21.6719189453125,22.187192626953127,22.1679189453125,21.195192626953123,22.1679189453125L18.555192626953126,22.1679189453125L18.555192626953126,19.7199189453125Z" fill="#DCC0FF" fill-opacity="1" style="mix-blend-mode:passthrough"/></g></g></g></g></svg>