<svg xmlns="http://www.w3.org/2000/svg" xmlns:xlink="http://www.w3.org/1999/xlink" fill="none" version="1.1" width="41" height="46.88888931274414" viewBox="0 0 41 46.88888931274414"><defs><clipPath id="master_svg0_42_690"><rect x="0" y="0" width="41" height="46.88888931274414" rx="0"/></clipPath><filter id="master_svg1_42_695" filterUnits="objectBoundingBox" color-interpolation-filters="sRGB" x="-2.0259126065133053" y="-1.6382698343420683" width="5.051825213026611" height="4.276539668684136"><feFlood flood-opacity="0" result="BackgroundImageFix"/><feColorMatrix in="SourceAlpha" type="matrix" values="0 0 0 0 0 0 0 0 0 0 0 0 0 0 0 0 0 0 127 0"/><feOffset dy="0" dx="0"/><feGaussianBlur stdDeviation="5"/><feColorMatrix type="matrix" values="0 0 0 0 0.5843137502670288 0 0 0 0 0.7568627595901489 0 0 0 0 1 0 0 0 0.30000001192092896 0"/><feBlend mode="normal" in2="BackgroundImageFix" result="effect1_dropShadow"/><feBlend mode="normal" in="SourceGraphic" in2="effect1_dropShadow" result="shape"/></filter></defs><g clip-path="url(#master_svg0_42_690)"><g><g><rect x="0" y="0" width="41" height="46.88888931274414" rx="0" fill="#FFFFFF" fill-opacity="0" style="mix-blend-mode:passthrough"/></g><g><g><rect x="3.888671875" y="6.77783203125" width="33.33333206176758" height="33.33333206176758" rx="16.66666603088379" fill="#FF6924" fill-opacity="1" style="mix-blend-mode:passthrough"/><rect x="3.888671875" y="6.77783203125" width="33.33333206176758" height="33.33333206176758" rx="16.66666603088379" fill="#2A2A2A" fill-opacity="1"/></g></g><g filter="url(#master_svg1_42_695)"><g><path d="M20.515083740234374,29.399864013671873C23.491083740234373,29.399864013671873,25.555083740234373,27.767864013671876,25.539083740234375,25.415864013671875C25.539083740234375,20.647864013671875,18.291083740234374,23.111864013671877,18.291083740234374,20.711864013671875C18.291083740234374,19.895864013671876,19.187083740234375,19.319864013671875,20.451083740234374,19.319864013671875C21.715083740234377,19.319864013671875,22.675083740234374,19.895864013671876,22.771083740234374,20.727864013671876L25.059083740234374,20.727864013671876L25.059083740234374,19.479864013671875C24.595083740234376,18.135864013671874,22.675083740234374,17.191864013671875,20.371083740234376,17.191864013671875C17.587083740234377,17.191864013671875,15.667083740234375,18.743864013671875,15.667083740234375,20.983864013671877C15.667083740234375,25.799864013671876,22.931083740234374,23.319864013671875,22.931083740234374,25.767864013671876C22.931083740234374,26.647864013671875,21.955083740234375,27.287864013671875,20.611083740234374,27.271864013671873C19.299083740234376,27.271864013671873,18.291083740234374,26.599864013671876,18.179083740234375,25.655864013671874L15.875084740234374,25.655864013671874L15.875084740234374,26.903864013671875C16.403084740234377,28.375864013671872,18.307083740234376,29.399864013671873,20.515083740234374,29.399864013671873Z" fill="#95C1FF" fill-opacity="1" style="mix-blend-mode:passthrough"/></g></g></g></g></svg>